# xmcd
# 
# Track frame offsets:
#     150
#     18830
#     36090
#     51850
#     70685
#     86285
#     105615
#     120585
#     137990
#     155560
#     172240
#     187800
# 
# Disc length: 2709
# 
# Revision: 0
# Processed by: cddbd v1.5.2PL0 Copyright (c) Steve Scherf et al.
# Submitted via: fre:ac v1.0.27
# 
DISCID=980a930c
DTITLE=THE BAWDIES - NEW
DYEAR=2017
DGENRE=Rock
TTITLE0=THE EDGE
TTITLE1=HELLO
TTITLE2=45s
TTITLE3=DANCING SHOES (“NEW” Version)
TTITLE4=RAINY DAY
TTITLE5=SUNSHINE
TTITLE6=POPULAR GIRL
TTITLE7=MAKE IT SNOW (“NEW” Version)
TTITLE8=MY EVERYTHING
TTITLE9=SHAKE, SHOUT and SOUL
TTITLE10=HOT NIGHT, MOON LIGHT
TTITLE11=NEW LIGHTS
EXTD=
EXTT0=
EXTT1=
EXTT2=
EXTT3=
EXTT4=
EXTT5=
EXTT6=
EXTT7=
EXTT8=
EXTT9=
EXTT10=
EXTT11=
PLAYORDER=
